<?xml version="1.0" encoding="UTF-8"?><svg id="a" xmlns="http://www.w3.org/2000/svg" viewBox="0 0 338 53.45"><path d="M0,1.08H21.38c5.38,0,9.54,1.79,12.2,4.95,2.15,2.51,3.44,5.88,3.44,9.76,0,9.4-5.38,15.07-16.57,15.07H6.46v21.52H0V1.08ZM6.46,25.61h13.49c7.25,0,10.69-3.66,10.69-9.54,0-6.17-3.8-9.4-10.33-9.4H6.46V25.61Z"/><path d="M54.1,1.08h7.25l18.94,51.3h-7.03l-5.45-15.64h-20.45l-5.52,15.64h-6.6L54.1,1.08Zm-4.88,30.42h16.79l-5.88-17.22c-1-2.87-2.3-7.25-2.3-7.25h-.14s-1.36,4.3-2.37,7.25l-6.1,17.22Z"/><path d="M121.61,45.63h-.14c-3.73,5.24-9.26,7.82-16,7.82-14.42,0-24.11-10.98-24.11-26.55S89.9,0,106.04,0c11.91,0,19.23,6.46,20.88,16.5h-6.67c-1.44-6.82-6.24-10.91-14.35-10.91-12.34,0-17.94,9.26-17.94,21.31s7.32,20.95,17.72,20.95,15.5-7.17,15.5-15.78v-1.22h-15.43v-5.6h21.88v27.12h-4.16l-1.87-6.74Z"/><path d="M136.53,1.08h36.23V6.74h-29.77V22.96h27.05v5.45h-27.05v18.01h30.64v5.96h-37.09V1.08Z"/><path d="M218.4,45.63h-.14c-3.73,5.24-9.26,7.82-16,7.82-14.42,0-24.11-10.98-24.11-26.55S186.68,0,202.83,0c11.91,0,19.23,6.46,20.88,16.5h-6.67c-1.44-6.82-6.24-10.91-14.35-10.91-12.34,0-17.94,9.26-17.94,21.31s7.32,20.95,17.72,20.95,15.5-7.17,15.5-15.78v-1.22h-15.43v-5.6h21.88v27.12h-4.16l-1.87-6.74Z"/><path d="M233.32,1.08h23.96c9.04,0,15.14,5.67,15.14,14.06,0,6.24-2.73,10.69-8.9,12.7v.22c5.24,1.87,6.89,5.45,7.39,13.06,.57,8.25,1.44,10.33,2.37,10.98v.29h-6.96c-1.08-.93-1.29-2.87-1.87-11.48-.5-7.53-3.52-10.19-10.4-10.19h-14.28v21.67h-6.46V1.08Zm6.46,24.39h15.21c7.17,0,10.76-3.59,10.76-9.4,0-6.24-2.87-9.4-10.4-9.4h-15.57V25.47Z"/><path d="M280.38,1.08h6.46V52.38h-6.46V1.08Z"/><path d="M296.6,1.08h18.65c15.43,0,22.74,10.48,22.74,25.83s-7.82,25.47-23.25,25.47h-18.15V1.08Zm17.94,45.63c12.05,0,16.86-7.75,16.86-19.8s-4.3-20.23-16.36-20.23h-11.98V46.71h11.48Z"/></svg>